<svg width="30" height="30" viewBox="0 0 30 30" fill="none" xmlns="http://www.w3.org/2000/svg">
<path d="M15.033 30H14.967C6.71428 30 0 23.2857 0 15.033V14.967C0 6.71427 6.71428 0 14.967 0H15.033C23.2857 0 30 6.71427 30 14.967V15.033C30 23.2857 23.2857 30 15.033 30ZM14.967 1.01547C7.2738 1.01547 1.01547 7.27379 1.01547 14.967V15.033C1.01547 22.7262 7.2738 28.9845 14.967 28.9845H15.033C22.7262 28.9845 28.9845 22.7262 28.9845 15.033V14.967C28.9845 7.27379 22.7262 1.01547 15.033 1.01547H14.967Z" fill="white"/>
<path d="M21.4287 11.0353V13.793C20.9767 13.7459 20.3894 13.6364 19.7398 13.3827C18.8915 13.0511 18.26 12.5978 17.8464 12.2468V17.8206L17.8359 17.8032C17.8426 17.9137 17.8464 18.0263 17.8464 18.1399C17.8464 20.9079 15.7343 23.1611 13.1376 23.1611C10.5408 23.1611 8.42871 20.9079 8.42871 18.1399C8.42871 15.3719 10.5408 13.1177 13.1376 13.1177C13.3919 13.1177 13.6414 13.1391 13.8851 13.1811V15.8989C13.651 15.8099 13.3996 15.7618 13.1376 15.7618C11.9083 15.7618 10.9074 16.8281 10.9074 18.1399C10.9074 19.4517 11.9083 20.518 13.1376 20.518C14.3669 20.518 15.3677 19.4507 15.3677 18.1399C15.3677 18.0908 15.3668 18.0417 15.3639 17.9925V7.16113H17.9482C17.9578 7.39444 17.9664 7.62981 17.976 7.86311C17.9933 8.32257 18.1468 8.76361 18.4145 9.12482C18.7283 9.54948 19.1918 10.0427 19.8425 10.4366C20.4518 10.804 21.0238 10.9626 21.4287 11.0373V11.0353Z" fill="white"/>
</svg>
